# xmcd
#
# Track frame offsets: 
#        150
#        14540
#        26749
#        45163
#        59245
#        71638
#        87499
#        103178
#        120820
#        133125
#        148238
#
# Disc length: 2254 seconds
#
# Revision: 0
# Processed by: cddbd v1.5.2PL0 Copyright (c) Steve Scherf et al.
# Submitted via: ExactAudioCopy v1.0b3
#
DISCID=a108cc0b
DTITLE=Miranda Lambert - Crazy Ex-Girlfriend
DYEAR=2007
DGENRE=Country
TTITLE0=Gunpowder and Lead (Album Version)
TTITLE1=Dry Town (Album Version)
TTITLE2=Famous In A Small Town (Album Version)
TTITLE3=Crazy Ex-Girlfriend (Album Version) [Explicit]
TTITLE4=Love Letters (Album Version)
TTITLE5=Desperation (Album Version)
TTITLE6=More Like Her
TTITLE7=Down
TTITLE8=Guilty In Here (Album Version)
TTITLE9=Getting Ready (Album Version)
TTITLE10=Easy From Now On
EXTD=
EXTT0=
EXTT1=
EXTT2=
EXTT3=
EXTT4=
EXTT5=
EXTT6=
EXTT7=
EXTT8=
EXTT9=
EXTT10=
PLAYORDER=
